<svg width="50" height="74" viewBox="0 0 50 74" fill="none" xmlns="http://www.w3.org/2000/svg">
<rect width="50" height="74" fill="#DCDCDC"/>
<g id="Desktop (2xl|1920)">
<rect width="1920" height="3505" transform="translate(-192 -3311)" fill="#E5E7EB"/>
<g id="0/2. Footer">
<rect width="1920" height="234" transform="translate(-192 -40)" fill="#111827"/>
<g id="Frame 38">
<g id="Frame 2">
<g id="Frame 1">
<g id="logo">
<g id="Clip path group">
<mask id="mask0_0_1" style="mask-type:luminance" maskUnits="userSpaceOnUse" x="0" y="0" width="50" height="74">
<g id="clip0">
<path id="Vector" d="M50 0H0V74H50V0Z" fill="white"/>
</g>
</mask>
<g mask="url(#mask0_0_1)">
<g id="Group">
<path id="Vector_2" d="M25.9083 -6.68583e-05C23.1091 0.000738676 20.4248 1.10044 18.4455 3.0573C16.4661 5.01415 15.3538 7.66801 15.353 10.4354V15.176H10.5579C9.17072 15.1749 7.79693 15.4442 6.51514 15.9685C5.23336 16.4928 4.06873 17.2619 3.08788 18.2317C2.10704 19.2014 1.32923 20.3529 0.798964 21.6201C0.268698 22.8874 -0.00361911 24.2456 -0.00240638 25.617V36.0488H15.3505V45.5301H10.5554C7.7554 45.5297 5.06991 46.6289 3.08954 48.5858C1.10917 50.5428 -0.00390472 53.1971 -0.00488281 55.9654V73.9943H10.5603C11.9462 73.9937 13.3183 73.7233 14.5984 73.198C15.8785 72.6732 17.0413 71.904 18.0208 70.9347C19.0001 69.9654 19.7768 68.8148 20.3063 67.5484C20.8359 66.2821 21.108 64.9256 21.1071 63.5556H21.1206V56.6678L21.0923 56.6715V12.7905L21.1157 12.796V10.4372C21.1181 9.17948 21.6237 7.97375 22.5221 7.0832C23.4204 6.19264 24.6386 5.6896 25.9108 5.68382H44.2484V10.4372C44.2445 11.6944 43.7372 12.8989 42.8374 13.7872C41.9377 14.6756 40.7188 15.1756 39.4471 15.1779H23.2858V20.8678H39.4447C42.2439 20.868 44.9285 19.7688 46.908 17.8122C48.8875 15.8555 49.9997 13.2016 50 10.4342V-0.00128174L25.9083 -6.68583e-05ZM15.353 30.3582H5.75908V25.6175C5.76119 24.3583 6.26735 23.1512 7.16703 22.2598C8.06666 21.3684 9.28666 20.8653 10.5603 20.8605H15.3555L15.353 30.3582ZM15.353 63.5608C15.3509 64.8177 14.8451 66.0231 13.9465 66.9122C13.0478 67.8017 11.8294 68.303 10.5579 68.3062H5.75661V55.9685C5.75777 54.7105 6.26419 53.5046 7.16451 52.6156C8.06487 51.7265 9.2854 51.2274 10.5579 51.2279H15.353V63.5608ZM23.2858 36.0482H35.3965V40.7936C35.3918 42.0506 34.8842 43.2546 33.9847 44.1428C33.0851 45.031 31.8666 45.5313 30.5952 45.5343H23.2858V51.2279H30.5977C31.9841 51.2286 33.357 50.9592 34.6379 50.435C35.9189 49.9109 37.0828 49.1422 38.0631 48.1731C39.0434 47.2039 39.8209 46.0532 40.3511 44.7868C40.8813 43.5204 41.1538 42.1631 41.1531 40.7924H41.158V30.357H23.2858V36.0482Z" fill="#A78BFA"/>
</g>
</g>
</g>
</g>
</g>
</g>
</g>
</g>
</g>
</svg>
